HIERARCHY
ROOT root
{
	OFFSET 0.000000 0.000000 0.000000
	CHANNELS 6 Xposition Yposition Zposition Zrotation Yrotation Xrotation
	JOINT lhip
	{
		OFFSET 0.058581 -0.082280 -0.017664
		CHANNELS 3 Zrotation Yrotation Xrotation
		JOINT lknee
		{
			OFFSET 0.043451 -0.386469 0.008037
			CHANNELS 3 Zrotation Yrotation Xrotation
			JOINT lankle
			{
				OFFSET -0.014790 -0.426874 -0.037428
				CHANNELS 3 Zrotation Yrotation Xrotation
				JOINT ltoe
				{
					OFFSET 0.041054 -0.060286 0.122042
					CHANNELS 3 Zrotation Yrotation Xrotation
					End Site
					{
						OFFSET 0.000000 0.000000 0.000000
					}
				}
			}
		}
	}
	JOINT rhip
	{
		OFFSET -0.060310 -0.090513 -0.013543
		CHANNELS 3 Zrotation Yrotation Xrotation
		JOINT rknee
		{
			OFFSET -0.043257 -0.383688 -0.004843
			CHANNELS 3 Zrotation Yrotation Xrotation
			JOINT rankle
			{
				OFFSET 0.019056 -0.420046 -0.034562
				CHANNELS 3 Zrotation Yrotation Xrotation
				JOINT rtoe
				{
					OFFSET -0.034840 -0.062106 0.130323
					CHANNELS 3 Zrotation Yrotation Xrotation
					End Site
					{
						OFFSET 0.000000 0.000000 0.000000
					}
				}
			}
		}
	}
	JOINT lowerback
	{
		OFFSET 0.004439 0.124404 -0.038385
		CHANNELS 3 Zrotation Yrotation Xrotation
		JOINT upperback
		{
			OFFSET 0.004488 0.137956 0.026820
			CHANNELS 3 Zrotation Yrotation Xrotation
			JOINT chest
			{
				OFFSET -0.002265 0.056032 0.002855
				CHANNELS 3 Zrotation Yrotation Xrotation
				JOINT lowerneck
				{
					OFFSET -0.013390 0.211636 -0.033468
					CHANNELS 3 Zrotation Yrotation Xrotation
					JOINT upperneck
					{
						OFFSET 0.010113 0.088937 0.050410
						CHANNELS 3 Zrotation Yrotation Xrotation
						End Site
						{
							OFFSET 0.000000 0.000000 0.000000
						}
					}
				}
				JOINT lclavicle
				{
					OFFSET 0.071702 0.114000 -0.018898
					CHANNELS 3 Zrotation Yrotation Xrotation
					JOINT lshoulder
					{
						OFFSET 0.122921 0.045205 -0.019046
						CHANNELS 3 Zrotation Yrotation Xrotation
						JOINT lelbow
						{
							OFFSET 0.255332 -0.015649 -0.022946
							CHANNELS 3 Zrotation Yrotation Xrotation
							JOINT lwrist
							{
								OFFSET 0.265709 0.012698 -0.007375
								CHANNELS 3 Zrotation Yrotation Xrotation
								End Site
								{
									OFFSET 0.000000 0.000000 0.000000
								}
							}
						}
					}
				}
				JOINT rclavicle
				{
					OFFSET -0.082954 0.112472 -0.023707
					CHANNELS 3 Zrotation Yrotation Xrotation
					JOINT rshoulder
					{
						OFFSET -0.113228 0.046853 -0.008472
						CHANNELS 3 Zrotation Yrotation Xrotation
						JOINT relbow
						{
							OFFSET -0.260127 -0.014369 -0.031269
							CHANNELS 3 Zrotation Yrotation Xrotation
							JOINT rwrist
							{
								OFFSET -0.269108 0.006794 -0.006027
								CHANNELS 3 Zrotation Yrotation Xrotation
								End Site
								{
									OFFSET 0.000000 0.000000 0.000000
								}
							}
						}
					}
				}
			}
		}
	}
}
MOTION
Frames: 17
Frame Time: 0.033333
-0.181350 0.730768 0.839559 49.420277 2.291629 108.938350 16.990710 14.549438 -62.212976 -2.286330 25.415110 64.893982 8.001743 3.872364 -29.638120 0.000000 -0.000000 0.000000 -10.577585 -17.215519 -61.590940 -7.268915 -20.623279 81.010513 2.122467 -6.596079 -30.447709 0.000000 -0.000000 0.000000 2.037205 0.682769 47.707378 0.035443 2.486575 -16.225325 0.729342 -1.710306 9.879149 -5.495685 -1.733792 4.041055 -2.485515 3.692623 27.642203 -7.223198 16.968394 -0.163159 -73.673582 -5.953404 -4.817308 174.977796 -47.619523 -127.195156 6.837520 0.630008 -31.859626 3.603370 -5.251497 -8.205045 74.102957 14.636651 9.650267 -169.992104 42.731339 -125.309878 34.115438 10.197429 -7.958385 
-0.182745 0.731302 0.834809 49.930541 2.130620 109.532495 17.046569 14.238192 -63.562206 -2.097977 25.477206 65.648369 8.037812 3.966842 -29.632449 0.000000 -0.000000 0.000000 -10.821214 -17.481837 -62.626182 -7.608933 -20.796538 82.067768 2.176580 -6.749624 -30.693152 0.000000 -0.000000 0.000000 2.153873 0.600835 48.532068 0.013738 2.510211 -16.319991 0.719505 -1.720217 9.878415 -5.743317 -1.875216 3.998526 -2.457527 3.668372 27.440845 -7.387472 16.902156 -0.264151 -73.567002 -5.886765 -4.842255 174.833112 -47.522954 -127.054400 7.059913 0.776361 -31.827615 3.571876 -5.050973 -8.119028 73.974623 14.727184 9.591933 -169.699564 42.731639 -125.052631 33.937446 10.088700 -7.731856 
-0.184451 0.731066 0.829537 50.231089 2.114944 110.264711 17.307182 14.383177 -64.894479 -2.041474 25.659922 66.378045 8.054202 3.931316 -29.625295 0.000000 -0.000000 0.000000 -10.924655 -17.398304 -63.875545 -7.936870 -20.982975 83.107508 2.086612 -7.166999 -30.898578 0.000000 -0.000000 0.000000 2.024283 0.697187 49.023489 0.042029 2.695458 -16.158572 0.916451 -1.847991 9.550576 -6.421205 -2.263210 4.403892 -2.356313 4.073672 27.203632 -7.929493 16.798094 -0.305745 -73.008136 -5.475860 -5.184645 174.578582 -47.271571 -126.968303 6.598663 1.126049 -31.092312 3.491703 -4.643197 -7.711033 73.811115 14.846813 9.466852 -169.426699 42.707862 -124.894828 34.070474 9.760131 -7.181062 
-0.186837 0.730229 0.824200 50.399992 2.264714 110.926440 17.788158 14.865970 -66.064707 -2.005128 25.979401 67.191333 8.019508 3.692894 -29.641707 0.000000 -0.000000 0.000000 -11.006227 -16.978378 -65.055473 -8.348269 -21.317112 84.156760 1.980063 -7.594499 -31.114373 0.000000 -0.000000 0.000000 1.736079 1.075736 49.436919 0.128704 3.021112 -16.027234 1.076628 -1.678875 9.488349 -6.368101 -2.216122 4.770471 -2.213314 3.812532 26.863469 -7.984093 16.639866 -0.160533 -72.841527 -5.498413 -5.234761 174.327459 -47.149734 -126.559296 5.908656 1.349383 -30.644956 3.642530 -4.553558 -7.515110 73.651418 14.974388 9.125312 -169.278885 42.591476 -124.548676 34.522338 9.615164 -7.231288 
-0.188330 0.729993 0.819738 50.934720 2.086751 111.324156 17.798520 14.745137 -67.148031 -1.937925 26.043817 67.882925 8.076192 3.619176 -29.606214 0.000000 -0.000000 0.000000 -11.297129 -17.214325 -65.825550 -8.772670 -21.493120 85.189387 2.075798 -7.702093 -31.341790 0.000000 -0.000000 0.000000 1.770168 1.206077 50.375926 0.146789 3.037699 -16.361048 0.965343 -1.376817 9.854282 -5.745874 -1.875472 4.577774 -2.146582 3.034483 26.821036 -7.517146 16.552723 -0.084015 -73.280562 -5.905185 -4.878550 174.336754 -47.300502 -126.340957 6.323746 1.720054 -30.686750 3.855371 -4.769218 -7.775807 73.552889 14.970602 8.888383 -169.149336 42.466380 -124.259862 34.363477 9.609827 -7.432617 
-0.189323 0.729705 0.815129 51.510759 1.878134 111.817108 17.741652 14.582004 -68.334147 -1.795014 26.134750 68.643803 8.240522 3.505437 -29.668645 0.000000 -0.000000 0.000000 -11.520593 -17.594376 -66.658364 -9.122260 -21.600911 86.174320 2.090142 -7.850702 -31.597590 0.000000 -0.000000 0.000000 2.006110 1.163740 51.166312 0.063113 2.948884 -16.647815 0.781017 -1.235625 10.134672 -5.465975 -1.701342 4.229589 -2.078828 2.640206 26.920599 -7.230047 16.487049 -0.018495 -73.640643 -6.083463 -4.890048 174.437520 -47.319580 -126.172025 6.412957 1.703399 -30.807971 3.862716 -4.722415 -7.832029 73.711008 15.094703 8.745819 -169.076094 42.376539 -123.978930 34.252536 9.579395 -7.486064 
-0.190151 0.729389 0.810634 52.048635 1.630290 112.280329 17.613192 14.460665 -69.461552 -1.677452 26.207287 69.357006 8.398302 3.400217 -29.748940 0.000000 -0.000000 0.000000 -11.727180 -17.971756 -67.483485 -9.424782 -21.603800 87.112168 2.078371 -8.094885 -31.843570 0.000000 -0.000000 0.000000 2.191130 1.057256 51.989873 -0.058418 2.865288 -16.921101 0.676150 -1.236232 10.278862 -5.612919 -1.754305 4.011811 -2.025909 2.709883 27.005589 -7.266995 16.488114 -0.074948 -73.695491 -5.985736 -5.117342 174.402918 -47.227619 -126.011071 6.692217 1.792546 -30.828349 3.736908 -4.520126 -7.794014 73.952004 15.326334 8.728995 -168.855438 42.362221 -123.689174 34.352446 9.451429 -7.266535 
-0.190780 0.729112 0.806211 52.542459 1.333308 112.640659 17.455656 14.336939 -70.449765 -1.549970 26.307883 70.031091 8.473916 3.251653 -29.800967 0.000000 -0.000000 0.000000 -12.009125 -18.321000 -68.223097 -9.822771 -21.526971 88.105834 2.119617 -8.260638 -32.046882 0.000000 -0.000000 0.000000 2.342231 0.970074 52.928099 -0.188704 2.772278 -17.159848 0.606910 -1.270695 10.286726 -5.914601 -1.888818 4.030475 -1.995307 2.820687 26.963377 -7.413089 16.376746 -0.098261 -73.578733 -5.762984 -5.433830 174.297563 -46.972689 -125.846339 6.493266 1.738690 -30.698031 3.597215 -4.162593 -7.692917 74.176416 15.631062 8.629068 -168.294634 42.219392 -123.165010 34.742101 9.244385 -6.846057 
-0.191371 0.728874 0.801809 53.017539 0.994258 112.922773 17.280505 14.175807 -71.347795 -1.427468 26.403672 70.675684 8.509422 3.099988 -29.863524 0.000000 -0.000000 0.000000 -12.361455 -18.613613 -68.906892 -10.281340 -21.376588 89.129246 2.203670 -8.417102 -32.246667 0.000000 -0.000000 0.000000 2.447230 0.937335 53.964758 -0.297561 2.714865 -17.327902 0.534943 -1.269511 10.203041 -6.099536 -1.879286 3.960054 -2.008915 2.738387 26.985193 -7.441695 16.256336 -0.039984 -73.528765 -5.660726 -5.633537 174.213927 -46.729160 -125.717407 6.270761 1.639541 -30.781983 3.580928 -3.899815 -7.686064 74.326938 15.927806 8.477459 -167.564352 41.979610 -122.442850 34.735835 9.004871 -6.287231 
-0.191900 0.728465 0.797339 53.534906 0.648193 113.325161 17.095397 14.040417 -72.375210 -1.338666 26.514252 71.339016 8.558337 2.946189 -29.914440 0.000000 -0.000000 0.000000 -12.736041 -18.861683 -69.706729 -10.722614 -21.213088 90.154242 2.317886 -8.633146 -32.389926 0.000000 -0.000000 0.000000 2.460980 0.817063 54.832517 -0.330565 2.520342 -17.872546 0.464766 -1.102636 10.435796 -6.253463 -1.670841 4.175032 -2.000120 2.696051 26.864637 -7.466628 16.201235 0.087691 -73.352838 -5.570511 -5.807651 174.205580 -46.567766 -125.694782 6.288450 1.662366 -30.882071 3.882836 -3.736266 -7.620793 74.346643 16.245998 8.328433 -167.010693 41.808838 -121.850184 34.465853 8.702431 -5.595863 
-0.192275 0.728131 0.793194 54.187664 0.298661 113.818973 16.869053 13.803468 -73.533543 -1.262323 26.576424 72.032177 8.708462 2.817867 -30.015772 0.000000 -0.000000 0.000000 -13.109186 -19.139814 -70.523252 -11.112730 -21.049787 91.116641 2.487842 -8.958120 -32.421484 0.000000 -0.000000 0.000000 2.609292 0.501591 55.537202 -0.379661 2.210049 -18.706791 0.296591 -0.804322 10.977580 -6.273112 -1.579102 4.588538 -1.815728 2.458496 26.628898 -7.258929 16.155878 0.295336 -73.239692 -5.577357 -5.895035 174.398750 -46.434801 -125.774123 6.285728 1.732242 -31.339724 4.220022 -3.667261 -7.542013 74.472611 16.338711 8.149632 -166.619230 41.654686 -121.306503 34.418860 8.451007 -5.213613 
-0.192887 0.728056 0.789104 54.762456 -0.039041 113.924260 16.779378 13.554263 -74.240758 -1.217471 26.718066 72.617649 8.745033 2.610492 -30.121637 0.000000 -0.000000 0.000000 -13.574052 -19.185842 -71.065852 -11.511034 -20.751306 92.111094 2.663897 -9.394221 -32.497864 0.000000 -0.000000 0.000000 2.830029 0.632911 56.351718 -0.268554 2.340286 -18.239551 0.312245 -1.080641 10.753200 -5.990413 -1.810138 4.110920 -2.081079 1.998531 27.033936 -7.217184 16.117403 0.253587 -73.458514 -5.809171 -5.669093 174.498476 -46.352450 -125.786840 6.095737 1.522414 -31.507512 4.131400 -3.896048 -7.875631 74.556106 16.239824 8.245730 -166.042734 41.466457 -120.653341 34.658725 8.101440 -4.891031 
-0.193202 0.727794 0.784895 55.271283 -0.381717 113.951096 16.581294 13.420145 -74.862921 -1.192903 26.788196 73.102100 8.675406 2.325754 -30.120182 0.000000 -0.000000 0.000000 -13.965495 -19.120540 -71.600688 -11.934787 -20.175978 93.080913 2.819961 -9.706395 -32.629842 0.000000 -0.000000 0.000000 2.971013 0.718238 57.344240 -0.192716 2.458465 -17.974958 0.344261 -1.343027 10.614456 -5.809894 -1.888561 3.548308 -2.281835 1.781609 27.356527 -7.186971 16.099349 0.167366 -73.734696 -6.047721 -5.502113 174.584269 -46.276410 -125.819968 6.186169 1.416597 -31.566475 4.041475 -4.119616 -8.228036 74.587503 16.226808 8.366742 -165.640159 41.425647 -120.298184 34.719472 7.877618 -4.534806 
-0.193310 0.727452 0.781207 55.844675 -0.664537 114.095480 16.343570 13.269811 -75.608036 -1.190941 26.754361 73.603569 8.649611 2.091722 -30.136821 0.000000 -0.000000 0.000000 -14.301455 -19.013238 -72.062893 -12.042688 -19.425789 93.792273 2.976318 -9.786777 -32.755253 0.000000 -0.000000 0.000000 3.117101 0.446826 58.236201 -0.214649 2.340865 -18.261136 0.288659 -1.334969 10.848495 -5.857855 -2.030286 3.471847 -2.144825 1.788439 27.239444 -7.163412 15.986816 0.121307 -73.836999 -6.090428 -5.577841 174.630641 -46.201379 -125.842087 6.506471 1.434663 -31.612610 3.971255 -3.998252 -8.281370 74.626379 16.229876 8.324557 -165.451281 41.322982 -120.190179 34.523583 7.786513 -4.346144 
-0.193547 0.727203 0.777631 56.401671 -0.957709 114.303090 16.150595 13.086915 -76.389785 -1.189287 26.761701 74.077048 8.665810 1.909248 -30.189015 0.000000 -0.000000 0.000000 -14.731120 -18.790656 -72.469471 -11.797577 -18.621073 94.316295 3.193148 -9.753756 -32.962549 0.000000 -0.000000 0.000000 3.234002 0.250259 58.897915 -0.184188 2.279674 -18.323814 0.246161 -1.418320 10.930491 -5.863209 -2.241359 3.440257 -2.079875 1.799591 27.216963 -7.216266 15.843420 0.066361 -73.896896 -6.102416 -5.561414 174.531993 -46.232186 -125.745422 6.782299 1.604154 -31.498817 3.840233 -3.941834 -8.351139 74.595147 16.188802 8.329269 -165.276271 41.204966 -120.110275 34.451320 7.672398 -4.311788 
-0.193807 0.726917 0.774165 56.976197 -1.215931 114.348099 16.053562 12.859296 -76.988785 -1.140763 26.774490 74.521265 8.596925 1.655949 -30.237747 0.000000 -0.000000 0.000000 -15.192125 -18.529947 -72.681813 -11.830476 -18.079354 94.896064 3.361105 -9.956546 -33.244031 0.000000 -0.000000 0.000000 3.412536 0.210997 59.687319 -0.100390 2.396908 -17.976647 0.274242 -1.692080 10.618044 -5.674821 -2.484294 3.136594 -2.223297 1.646611 27.445674 -7.274452 15.724794 0.052895 -74.062515 -6.202316 -5.403300 174.518429 -46.260386 -125.632012 6.500715 1.292811 -31.476243 3.584293 -4.099206 -8.627650 74.527672 16.139391 8.373608 -164.958748 41.055114 -119.862709 34.542420 7.596547 -4.326332 
-0.193674 0.726580 0.770612 57.503412 -1.525224 114.272621 15.839187 12.615564 -77.470238 -1.090635 26.686750 74.928653 8.462309 1.396527 -30.265851 0.000000 -0.000000 0.000000 -15.540804 -18.380709 -72.947531 -12.223964 -17.489263 95.636996 3.538094 -10.281469 -33.380466 0.000000 -0.000000 0.000000 3.531354 0.138003 60.702105 -0.080165 2.507667 -17.782292 0.333107 -1.983741 10.316607 -5.608364 -2.820733 2.817350 -2.318988 1.512347 27.580474 -7.348728 15.596234 0.031648 -74.190987 -6.310434 -5.319507 174.511665 -46.249938 -125.599901 6.526357 1.113827 -31.381610 3.286732 -4.199410 -8.917366 74.470078 16.079024 8.399030 -164.626651 40.938066 -119.688507 34.203376 7.520127 -4.091471 
